<svg width="40" height="40" viewBox="0 0 40 40" fill="none" xmlns="http://www.w3.org/2000/svg">
<circle cx="20" cy="20" r="20" fill="white"/>
<path d="M15.0259 26.7187C15.0762 26.0813 15.235 23.7908 15.3437 21.5796C15.3981 20.4739 15.4399 19.3863 15.4494 18.5347C15.4541 18.1092 15.4507 17.7405 15.4365 17.457C15.4294 17.3154 15.4195 17.1929 15.4062 17.094C15.3935 17.0001 15.3758 16.9117 15.3462 16.8492L15.346 16.8489C15.2445 16.6358 15.0932 16.5208 14.9466 16.4298C14.9092 16.4066 14.8734 16.3855 14.8389 16.3652C14.7338 16.3032 14.6405 16.2482 14.5495 16.1614C14.3263 15.9485 14.1074 15.5206 14.1571 14.2787L14.1572 14.2787V14.2727C14.1572 13.9644 14.2732 12.4433 14.4239 10.9788C14.499 10.2484 14.5823 9.53672 14.6632 9.0023C14.7038 8.73454 14.7432 8.51464 14.7801 8.36012C14.7841 8.34348 14.788 8.32783 14.7918 8.31315C14.7933 8.3462 14.7945 8.38344 14.7954 8.42478C14.799 8.60624 14.7956 8.85507 14.7875 9.15018C14.7747 9.61705 14.7505 10.1936 14.7254 10.7913C14.7188 10.9488 14.7121 11.1077 14.7056 11.2665C14.6742 12.0266 14.6459 12.7834 14.6422 13.3525C14.6404 13.6365 14.6447 13.8778 14.6583 14.0508C14.665 14.1362 14.6746 14.2118 14.6889 14.2696C14.6959 14.2975 14.7061 14.3305 14.723 14.3602C14.7347 14.3808 14.7654 14.4275 14.8238 14.4473C14.9279 14.4944 15.0381 14.4925 15.1416 14.4415C15.2006 14.4136 15.226 14.3598 15.2341 14.3422C15.2466 14.3149 15.2555 14.2842 15.2623 14.2553C15.2762 14.1963 15.2872 14.119 15.2966 14.0298C15.3154 13.8501 15.3291 13.6019 15.3396 13.3108C15.3606 12.7278 15.369 11.9589 15.3773 11.1908L15.3773 11.1887C15.3857 10.4199 15.394 9.65196 15.4148 9.06559C15.4249 8.78197 15.4378 8.5437 15.4546 8.3695C15.456 8.38596 15.4574 8.40317 15.4586 8.42111C15.4721 8.60783 15.4792 8.86119 15.4821 9.16042C15.4875 9.72391 15.4776 10.4401 15.4677 11.1596C15.4671 11.2036 15.4665 11.2476 15.4659 11.2915C15.4555 12.0534 15.446 12.8091 15.456 13.3744C15.461 13.6564 15.4708 13.8954 15.4884 14.0654C15.4971 14.1491 15.5084 14.2236 15.5242 14.2799C15.5319 14.307 15.5433 14.3403 15.5623 14.37C15.5787 14.3956 15.6258 14.4562 15.712 14.4562H15.8791C15.9578 14.4562 16.0058 14.4062 16.0268 14.3773C16.0486 14.3474 16.0621 14.3133 16.0711 14.2855C16.0897 14.2278 16.103 14.1523 16.1133 14.0682C16.1343 13.8973 16.1468 13.6577 16.1539 13.3755C16.1681 12.8097 16.1607 12.0536 16.1503 11.2915C16.1483 11.1452 16.1462 10.9986 16.1441 10.8531C16.1352 10.2391 16.1266 9.6432 16.1278 9.15938C16.1286 8.86288 16.1331 8.61102 16.1433 8.42417C16.1587 8.59237 16.1711 8.811 16.1816 9.06638C16.2055 9.65231 16.218 10.4195 16.2305 11.1877L16.2306 11.1916C16.2431 11.9597 16.2556 12.7286 16.2798 13.3117C16.2918 13.6028 16.3068 13.8509 16.3266 14.0306C16.3364 14.1198 16.3479 14.1971 16.3621 14.256C16.369 14.2849 16.378 14.3154 16.3906 14.3427C16.3987 14.3603 16.4243 14.4139 16.4832 14.4416C16.5546 14.4764 16.622 14.4731 16.6666 14.4675C16.6808 14.4658 16.6981 14.4629 16.7104 14.4608C16.7148 14.4601 16.7185 14.4595 16.7212 14.4591C16.7357 14.4568 16.7433 14.4562 16.7482 14.4562H16.7667L16.7846 14.4517C16.8571 14.4336 16.8915 14.3765 16.9038 14.3532C16.9192 14.324 16.929 14.2916 16.9359 14.2629C16.95 14.2042 16.9595 14.1277 16.9663 14.0411C16.9799 13.8659 16.9841 13.6232 16.9823 13.3384C16.9786 12.7677 16.9503 12.012 16.919 11.254C16.9124 11.0937 16.9056 10.9333 16.8989 10.7745C16.8739 10.1808 16.8498 9.60878 16.8371 9.14546C16.8307 8.91281 16.8272 8.7091 16.8278 8.54471C16.8647 8.73478 16.9101 8.97713 16.9593 9.25848C17.0837 9.96969 17.2325 10.9288 17.3302 11.9225C17.428 12.9175 17.474 13.9407 17.3954 14.7821C17.3561 15.203 17.2861 15.5723 17.1792 15.8675C17.0728 16.1612 16.9349 16.3677 16.7682 16.4857C16.7175 16.5144 16.6716 16.5364 16.6285 16.5563C16.6194 16.5605 16.6099 16.5648 16.6004 16.5691C16.566 16.5848 16.53 16.6012 16.4984 16.6179C16.4075 16.666 16.3266 16.7303 16.276 16.8544C16.2451 16.9235 16.2237 17.0158 16.2075 17.1182C16.1905 17.2252 16.1775 17.3548 16.1676 17.5025C16.1479 17.798 16.1404 18.1744 16.1423 18.6042C16.1459 19.4643 16.1868 20.5471 16.2433 21.6427C16.3561 23.8333 16.5318 26.0839 16.599 26.7229M15.0259 26.7187C15.0045 27.0183 14.9488 27.423 14.8865 27.8764C14.8745 27.9634 14.8623 28.0523 14.85 28.1425C14.7733 28.7068 14.6935 29.3322 14.6541 29.9386C14.6147 30.5464 14.6166 31.127 14.6998 31.6032C14.7838 32.0843 14.9451 32.4267 15.1956 32.6008C15.455 32.7791 15.6328 32.85 15.7997 32.85C15.9678 32.85 16.1541 32.7783 16.4306 32.5997C16.6799 32.4253 16.843 32.0775 16.9296 31.5887C17.0153 31.1044 17.0202 30.5143 16.9829 29.9004C16.9457 29.288 16.8669 28.6596 16.7887 28.1008C16.7642 27.9252 16.7395 27.7558 16.7163 27.5957C16.666 27.25 16.6221 26.9482 16.599 26.7229M15.0259 26.7187C15.0259 26.7189 15.0259 26.7191 15.0259 26.7192L14.8763 26.7074L15.026 26.7181C15.0259 26.7183 15.0259 26.7185 15.0259 26.7187ZM16.599 26.7229C16.599 26.7229 16.599 26.7228 16.599 26.7227L16.7482 26.7074L16.5991 26.7231C16.599 26.7231 16.599 26.723 16.599 26.7229ZM14.7753 8.15262C14.7753 8.15259 14.7755 8.15317 14.7759 8.15448L14.7753 8.15262ZM15.4976 8.10726C15.4976 8.10734 15.4971 8.10842 15.4962 8.11025C15.497 8.10808 15.4975 8.10717 15.4976 8.10726ZM16.0938 8.10767C16.0938 8.10758 16.0943 8.10849 16.0952 8.11065C16.0942 8.10883 16.0938 8.10775 16.0938 8.10767ZM16.8492 8.15271C16.8492 8.15275 16.849 8.1534 16.8486 8.15456L16.8492 8.15271Z" fill="white" stroke="black" stroke-width="0.3"/>
<path d="M25.3243 16.8053L25.2039 16.8316L25.2064 16.9549L25.5225 32.437C25.4947 32.4447 25.4568 32.4525 25.4086 32.4597C25.2726 32.48 25.0861 32.4908 24.8958 32.4908C24.7055 32.4908 24.5189 32.48 24.3829 32.4597C24.3348 32.4525 24.2969 32.4447 24.2691 32.437L24.5852 16.9549L24.5877 16.8316L24.4673 16.8053C23.7875 16.6565 23.1748 16.1589 22.7291 15.4237C22.284 14.6895 22.0123 13.7281 22.0123 12.677C22.0123 11.512 22.3462 10.467 22.8743 9.71716C23.403 8.96666 24.1163 8.52305 24.8799 8.52305C25.6603 8.52305 26.3815 8.96764 26.9135 9.71758C27.4454 10.4672 27.7792 11.512 27.7792 12.677C27.7792 13.7281 27.5076 14.6895 27.0625 15.4237C26.6167 16.1589 26.004 16.6565 25.3243 16.8053Z" fill="white" stroke="black" stroke-width="0.3"/>
</svg>
