<svg width="37" height="37" viewBox="0 0 37 37" fill="none" xmlns="http://www.w3.org/2000/svg">
<path d="M37 18.5C37 28.7173 28.7173 37 18.5 37C8.28273 37 0 37 0 18.5C0 0 8.28273 0 18.5 0C28.7173 0 37 8.28273 37 18.5Z" fill="white"/>
<line x1="28.521" y1="23.5" x2="30.521" y2="13.5" stroke="black" stroke-linecap="round"/>
<line x1="23.5" y1="18.4795" x2="33.5" y2="20.4795" stroke="black" stroke-linecap="round"/>
<path fill-rule="evenodd" clip-rule="evenodd" d="M7.88193 5.05538C7.88193 5.05538 9.48642 12.4761 7.84851 13.6126C7.61452 13.7463 7.48081 13.7463 7.41396 13.9134C7.04627 14.7157 7.61452 22.4372 7.74823 23.7074C7.88193 25.0111 8.7176 28.8886 7.51424 29.7242C6.94599 30.0919 6.64515 30.0919 6.11032 29.7242C4.90696 28.8886 5.77605 25.1114 5.87633 23.7074C5.97661 22.4372 6.51144 14.5485 6.2106 13.9134C5.87633 13.2115 4.90696 13.7797 5.00724 11.2727C5.00724 10.6376 5.47521 5.15566 5.74262 5.05538C5.77605 5.02196 5.8429 5.05538 5.90976 5.08881C6.07689 5.3228 5.60892 11.2727 5.87633 11.3062C5.94319 11.3396 6.01004 11.3396 6.07689 11.3062C6.31088 11.2059 6.14375 5.18909 6.37773 5.02196C6.44459 4.98853 6.51144 4.98853 6.54487 5.05538C6.77885 5.35622 6.44459 11.3062 6.712 11.3062H6.87913C7.17997 11.3062 6.84571 5.35622 7.04627 5.05538C7.11312 4.98853 7.17997 4.98853 7.2134 5.02196C7.44739 5.18909 7.31368 11.2059 7.54767 11.3062C7.61452 11.3396 7.68137 11.3062 7.74823 11.3062C8.01564 11.2393 7.54767 5.3228 7.7148 5.08881C7.74823 5.02196 7.81508 5.02196 7.88193 5.05538Z" fill="black"/>
<path fill-rule="evenodd" clip-rule="evenodd" d="M15.8799 5.37305C17.5634 5.37305 18.9292 7.29236 18.9292 9.67697C18.9292 11.8289 17.8175 13.6319 16.3563 13.9518L16.674 29.5099C16.674 29.6844 15.1176 29.6844 15.1176 29.5099L15.4352 13.9518C13.974 13.6319 12.8623 11.8289 12.8623 9.67697C12.8623 7.29236 14.2282 5.37305 15.8799 5.37305Z" fill="black"/>
</svg>
