<svg width="19" height="25" viewBox="0 0 19 25" fill="none" xmlns="http://www.w3.org/2000/svg">
<!-- <path d="M18.5 0H2.5C1.83696 0 1.20107 0.263392 0.732233 0.732233C0.263392 1.20107 0 1.83696 0 2.5V24.5C0 24.6326 0.052678 24.7598 0.146446 24.8536C0.240214 24.9473 0.367392 25 0.5 25H18.5C18.6326 25 18.7598 24.9473 18.8536 24.8536C18.9473 24.7598 19 24.6326 19 24.5V0.5C19 0.367392 18.9473 0.240215 18.8536 0.146447C18.7598 0.0526785 18.6326 0 18.5 0ZM2.5 1H18V4H2.5C2.10218 4 1.72064 3.84196 1.43934 3.56066C1.15804 3.27936 1 2.89782 1 2.5C1 2.10218 1.15804 1.72064 1.43934 1.43934C1.72064 1.15804 2.10218 1 2.5 1ZM1 24V4.487C1.43027 4.81777 1.95729 4.99801 2.5 5H10H10.813H12H13C13 5 13.9063 5.01074 14 5C14.0937 4.98926 14.5 5 14.5 5H15H15.5C15.5 5 15.623 4.98939 15.7165 5C15.81 5.01061 15.7835 5.05 16 5C15.9498 5.0796 16.0848 4.95927 16 5C15.9999 5.09408 16.0502 4.9204 16 5H18V24H1Z" fill="black"/> -->
<path d="M12.4604 10.1737C11.5566 9.77031 10.6071 10.1004 9.97837 11.0319C9.34969 10.093 8.40011 9.76298 7.49638 10.1737C6.573 10.5771 5.7413 11.8094 6.07529 13.5551C6.63849 16.4377 9.77536 17.9267 9.91288 17.978C9.93253 18 9.97837 18 10.0046 18C10.0242 18 10.0701 18 10.0962 17.978C10.2338 17.9267 13.3444 16.4083 13.9338 13.5551C14.2482 11.8094 13.3903 10.5992 12.4604 10.1737Z" fill="black"/>
</svg>
