<svg width="26" height="32" viewBox="0 0 26 32" fill="none" xmlns="http://www.w3.org/2000/svg">
<path d="M17.1053 14.2531C17.1673 14.2756 17.2236 14.2812 17.2856 14.2812C17.5221 14.2812 17.7418 14.1348 17.8206 13.8982C17.9952 13.3801 18.5584 13.1041 19.0766 13.2787C20.1805 13.6504 21.3858 13.059 21.7631 11.9551C21.8645 11.6623 21.7068 11.3412 21.4139 11.2398C21.1154 11.1385 20.8 11.2962 20.6987 11.5947C20.5241 12.1128 19.9608 12.3888 19.4427 12.2142C18.3388 11.8425 17.1335 12.4339 16.7561 13.5378C16.6548 13.8306 16.8125 14.1517 17.1053 14.2531Z" fill="black"/>
<path d="M18.4402 10.3275C18.5021 10.35 18.5584 10.3556 18.6204 10.3556C18.857 10.3556 19.0766 10.2092 19.1555 9.97263C19.2399 9.71918 19.4202 9.52206 19.6567 9.40378C19.8933 9.28551 20.1636 9.26861 20.4114 9.35309C21.5153 9.72482 22.7206 9.13344 23.098 8.02954C23.1993 7.73666 23.0416 7.41563 22.7431 7.31425C22.4503 7.21287 22.1292 7.37057 22.0279 7.66908C21.8533 8.18724 21.29 8.46321 20.7719 8.28861C20.2368 8.10839 19.6623 8.14218 19.1555 8.39563C18.6486 8.64344 18.2712 9.07712 18.0853 9.61217C17.984 9.90504 18.1417 10.2261 18.4402 10.3275Z" fill="black"/>
<path d="M19.7693 6.40183C19.8313 6.42436 19.8933 6.42999 19.9496 6.42999C20.1861 6.42999 20.4058 6.28356 20.4846 6.04701C20.6142 5.66402 21.0309 5.46126 21.4139 5.5908C21.8814 5.7485 22.3883 5.71471 22.8332 5.50069C23.2782 5.28103 23.6105 4.90368 23.7682 4.43058C23.8696 4.1377 23.7119 3.81667 23.419 3.71529C23.1261 3.61391 22.8051 3.77161 22.7037 4.07012C22.6417 4.25598 22.5122 4.40242 22.332 4.49253C22.1574 4.57701 21.9603 4.59391 21.7744 4.52632C20.8057 4.19966 19.7468 4.71782 19.4145 5.68655C19.3188 5.97942 19.4765 6.30045 19.7693 6.40183Z" fill="black"/>
<path d="M23.526 14.0954C24.6468 10.457 25.2607 6.89183 25.3508 3.49564C25.3733 2.52127 24.9509 1.41737 24.2976 0.741512C23.5147 -0.0582545 22.4503 -0.227219 21.4027 0.313468C19.7187 1.18645 18.5134 3.73782 17.5446 5.79356C17.4883 5.91183 17.432 6.03011 17.3813 6.14275C17.1673 5.16276 16.5196 4.32357 15.5959 3.88426C15.3763 2.83668 14.5483 2.02001 13.5064 1.80599C13.4951 1.74967 13.4782 1.68771 13.4613 1.63139C13.2473 0.899213 12.5996 0.347261 11.8505 0.257146C11.4169 0.206457 11.0057 0.296572 10.6509 0.504961C10.3467 0.335997 10.0032 0.245882 9.65399 0.245882C8.67399 0.245882 7.8517 0.927373 7.63768 1.84542C6.56757 2.13829 5.77906 3.11828 5.77343 4.26161C4.55125 4.57701 3.66137 5.68092 3.66137 6.99321C3.66137 7.3424 3.72896 7.68597 3.85287 8.01263C3.53746 8.40688 3.36287 8.89688 3.36287 9.40941C3.36287 9.71918 3.42482 10.0177 3.54873 10.288C2.98551 9.67412 2.19701 9.17286 1.30713 9.20665C0.997361 9.21791 0.749546 9.47699 0.76081 9.78676C0.772074 10.0909 1.01989 10.3331 1.32403 10.3331C1.34092 10.3331 1.36345 10.3331 1.38035 10.3331C1.90977 10.3331 2.39977 10.6823 2.75459 11.0878C1.85908 11.3469 0.783339 11.7636 0.282076 12.7099C-0.0220602 13.2787 -0.0558532 13.9771 0.141272 14.7769C0.0398935 14.9402 -0.00516377 15.1317 0.000468385 15.3401L0.963568 28.953C1.05368 30.6595 2.46172 32 4.16827 32H19.9777C21.6899 32 23.098 30.6595 23.1824 28.9643L24.1681 14.8557C24.1793 14.6529 24.1061 14.4558 23.9653 14.3094C23.8527 14.1855 23.695 14.1179 23.526 14.0954ZM17.8432 7.75355C18.0684 7.33677 18.3106 6.81861 18.5697 6.27229C19.4145 4.47563 20.5747 2.01438 21.9208 1.32162C22.5291 1.00622 23.0473 1.07381 23.4922 1.53001C23.9935 2.04254 24.2413 2.893 24.23 3.46748C24.1455 6.79608 23.5373 10.2993 22.4221 13.8813C22.3883 13.9996 22.3038 14.2362 22.1912 14.5628L21.2337 14.9909C21.2112 15.0021 21.1943 15.0134 21.1718 15.0247C20.9014 15.188 20.586 15.2669 20.2706 15.2725C19.9552 15.2669 19.6454 15.188 19.3695 15.0247L18.9696 14.7825C18.519 14.5121 18.0009 14.3657 17.4714 14.3657C17.3306 14.3657 17.1898 14.377 17.049 14.3995C16.6604 14.4502 16.2774 14.5797 15.9395 14.7825L15.5396 15.0247C15.3199 15.1542 15.0721 15.2218 14.8187 15.25C14.8299 15.2049 14.8468 15.1655 14.8581 15.126C15.0158 14.5966 15.1848 14.0672 15.3594 13.549C15.4213 13.3575 15.4889 13.1717 15.5565 12.9802C15.7029 12.569 15.855 12.1579 16.0183 11.7524C16.0859 11.5778 16.1535 11.4032 16.2211 11.2342C16.6998 10.0289 17.2461 8.86872 17.8432 7.75355ZM10.4425 6.80172C10.3186 6.82988 10.189 6.74539 10.1665 6.62149C10.1384 6.49758 10.2228 6.37367 10.3467 6.34551L13.5064 5.65839C13.6134 5.65839 13.7091 5.73724 13.7373 5.84425C13.7542 5.9231 13.726 5.99069 13.7035 6.01885C13.6866 6.04701 13.6416 6.10333 13.5571 6.12022L10.4425 6.80172ZM10.6621 9.08837C10.7297 9.00389 10.7917 8.91941 10.8536 8.84056C10.8987 8.7786 10.9381 8.72228 10.9719 8.66033C11.1127 8.40125 11.1409 8.10838 11.0789 7.82114L13.4275 7.30861C13.4444 7.38183 13.4613 7.44941 13.4895 7.517C13.5965 7.77608 13.7824 7.9901 14.0471 8.14217C14.1316 8.18723 14.2217 8.23792 14.3118 8.28297C14.385 8.3224 14.4639 8.36746 14.5427 8.40688C14.5821 8.42941 14.6159 8.44631 14.6553 8.46884C14.7229 8.50826 14.7849 8.54769 14.8525 8.58711C14.9088 8.6209 14.9651 8.6547 15.0158 8.69412C15.0778 8.73918 15.1397 8.78424 15.196 8.83493C15.2467 8.87998 15.2974 8.92504 15.3481 8.9701C15.4044 9.02079 15.4551 9.07711 15.5058 9.13343C15.5903 9.23481 15.6748 9.34745 15.7424 9.47136C15.5058 10.0008 15.2805 10.5358 15.0609 11.0765C15.0271 11.161 14.9933 11.2399 14.9595 11.3243C14.3399 11.482 13.7429 11.7749 13.0108 12.2987C12.0815 12.9577 11.3887 13.1323 10.251 12.9689L9.90744 11.4032C9.67089 10.35 10.1778 9.70791 10.6621 9.08837ZM10.4988 14.1292C10.6621 14.1404 10.8198 14.1573 10.9719 14.1573C11.9519 14.1573 12.746 13.8644 13.6528 13.2167C13.9401 13.014 14.1935 12.8563 14.4357 12.7324C14.385 12.8788 14.3343 13.0253 14.2836 13.1717C14.2498 13.2787 14.2104 13.3801 14.171 13.4871C14.0076 13.9884 13.8499 14.4952 13.6979 15.0021L13.3262 14.7769C12.8756 14.5065 12.3574 14.3601 11.828 14.3601C11.6928 14.3601 11.5577 14.3713 11.4225 14.3939C11.3887 14.3995 11.3605 14.4051 11.3267 14.4108C11.2648 14.422 11.2028 14.4333 11.1409 14.4446C10.955 14.484 10.7748 14.5403 10.6002 14.6192L10.4988 14.1292ZM4.90045 8.55332L5.26654 8.24918L5.02435 7.83803C4.87229 7.57895 4.79344 7.28608 4.79344 6.98758C4.79344 6.07517 5.50872 5.33172 6.42113 5.2923L7.10262 5.26414L6.94492 4.59954C6.91676 4.4869 6.9055 4.37989 6.9055 4.27288C6.9055 3.54633 7.47434 2.93805 8.19526 2.88173L8.71342 2.84231V2.27909C8.73032 1.7722 9.1471 1.36668 9.65962 1.36668C9.95249 1.36668 10.1665 1.50185 10.2904 1.6145L10.6847 1.96932L11.062 1.5976C11.2366 1.42864 11.4675 1.34415 11.721 1.37231C12.0251 1.40611 12.2955 1.64266 12.3856 1.94679C12.4137 2.04817 12.425 2.14392 12.4137 2.2453L12.3462 2.8761H12.9826C13.7936 2.8761 14.4695 3.5069 14.5258 4.31793L14.554 4.68966L14.9032 4.81356C15.7818 5.12333 16.3619 5.95689 16.345 6.8862C16.3394 7.28608 16.2098 7.66907 15.9733 8.00137C15.5959 7.68033 15.1904 7.46631 14.8468 7.28608C14.7567 7.24102 14.6722 7.19597 14.5878 7.14528C14.5652 7.13401 14.5371 7.10585 14.5258 7.04953C14.5145 6.97068 14.5427 6.8693 14.6047 6.80172C14.8525 6.51448 14.9482 6.12586 14.8694 5.75977L14.8018 5.45C14.6666 4.8192 14.002 4.39115 13.3712 4.53196L13.2135 4.56575H13.2079L11.552 4.92621L9.94123 5.28103C9.29353 5.42184 8.88238 6.0639 9.02319 6.7116L9.09077 7.01574C9.17526 7.39309 9.43434 7.70849 9.78916 7.86056C9.87928 7.89999 9.9525 7.96757 9.97502 8.04079C9.99192 8.08022 9.98066 8.10274 9.94686 8.15907C9.89054 8.23228 9.82859 8.31113 9.77227 8.38999C9.71031 8.46884 9.64273 8.55332 9.58077 8.6378C9.55824 8.66596 9.54135 8.69412 9.51882 8.71665C9.46813 8.78424 9.42307 8.85182 9.37238 8.91941C9.34985 8.9532 9.32732 8.99263 9.29916 9.02642C9.25411 9.09401 9.21468 9.16159 9.17526 9.23481C9.15273 9.27423 9.1302 9.31366 9.10767 9.35309C9.06261 9.43194 9.02882 9.51642 8.9894 9.6009C8.9725 9.63469 8.9556 9.66849 8.94434 9.70791C8.89365 9.83182 8.84859 9.96136 8.8148 10.0965C8.80917 10.1191 8.80917 10.1416 8.80353 10.1585C8.77537 10.2768 8.75284 10.395 8.74158 10.5189C8.73595 10.5696 8.73595 10.6203 8.73032 10.671C8.72468 10.7386 8.71905 10.8006 8.71905 10.8681C8.70216 10.8456 8.68526 10.8287 8.66836 10.8062C8.62894 10.7555 8.59514 10.7161 8.55572 10.6654C8.47124 10.564 8.38675 10.4626 8.30227 10.3725C8.26285 10.3274 8.21779 10.2824 8.17836 10.243C8.08825 10.1529 7.99814 10.0684 7.91365 9.99515C7.87986 9.96699 7.84607 9.9332 7.81227 9.90504C7.694 9.80929 7.57572 9.72481 7.45182 9.64596C7.41802 9.62343 7.3786 9.60653 7.33917 9.584C7.24906 9.53331 7.16458 9.48826 7.07446 9.45446C7.02377 9.43194 6.97871 9.41504 6.92802 9.39814C6.84917 9.36998 6.76469 9.34745 6.68584 9.32492C6.63515 9.31366 6.5901 9.3024 6.53941 9.29113C6.43803 9.27423 6.33665 9.26297 6.22964 9.26297C6.20711 9.26297 6.18458 9.25734 6.15642 9.25734C5.57067 9.25734 5.03562 9.48826 4.56815 9.79239C4.51746 9.66285 4.4893 9.52768 4.4893 9.38688C4.49493 9.07148 4.64137 8.76171 4.90045 8.55332ZM1.27897 13.228C1.51552 12.7774 2.09563 12.4339 3.09816 12.1466C3.56563 12.0115 4.00493 11.7636 4.35976 11.4257C4.51746 11.2737 4.6639 11.1441 4.81033 11.0258C4.93987 10.9188 5.06378 10.8287 5.18206 10.7499C5.18769 10.7442 5.19332 10.7442 5.19332 10.7442C5.42987 10.5922 5.64952 10.4908 5.85228 10.4345C5.85791 10.4345 5.86918 10.4288 5.87481 10.4288C5.97619 10.4063 6.07194 10.3894 6.16768 10.3894C6.87734 10.3894 7.63768 11.0934 8.42618 12.4902C8.84296 13.2224 8.97813 14.2981 8.7979 15.2387C8.75848 15.2331 8.71342 15.2274 8.67399 15.2218C8.47124 15.1824 8.27411 15.1204 8.09951 15.0134L7.69963 14.7712C7.24906 14.5009 6.7309 14.3544 6.20148 14.3544C6.06067 14.3544 5.91987 14.3657 5.77906 14.3882C5.39045 14.4389 5.00746 14.5685 4.66953 14.7712L4.4724 14.8895C4.14011 15.0923 3.75149 15.188 3.3685 15.1936C2.97988 15.1993 2.59689 15.0979 2.25896 14.9008L1.49862 14.4446C1.39724 14.3882 1.29023 14.3432 1.18322 14.3263C1.09874 13.8757 1.1269 13.5153 1.27897 13.228ZM22.0616 28.8967C22.0053 30.0062 21.0929 30.8736 19.9834 30.8736H4.1739C3.06436 30.8736 2.15195 30.0062 2.09 28.8854L1.15506 15.571L1.64506 15.8639C2.16322 16.1736 2.76586 16.3313 3.3685 16.3257C3.97114 16.3313 4.56815 16.1736 5.09194 15.8639L5.28907 15.7456C5.55941 15.5823 5.87481 15.5034 6.19021 15.4978C6.50561 15.5034 6.81538 15.5823 7.09136 15.7456L7.49124 15.9878C7.8348 16.1962 8.22342 16.3201 8.62331 16.3708C8.75284 16.3877 8.88802 16.3989 9.02319 16.3989C9.1133 16.3989 9.20905 16.3933 9.29916 16.3877C9.32169 16.3877 9.33859 16.3764 9.36112 16.3708C9.73284 16.3257 10.0989 16.2074 10.4256 16.0216C10.4594 16.0103 10.4932 16.0103 10.527 15.9934L10.9269 15.7512C11.1972 15.5879 11.5126 15.509 11.828 15.5034C12.1434 15.509 12.4532 15.5879 12.7291 15.7512L13.129 15.9934C13.5064 16.2187 13.9288 16.3426 14.3625 16.382C14.385 16.382 14.4019 16.3877 14.4244 16.3933H14.4301C14.4413 16.3933 14.4751 16.3989 14.4751 16.3989C14.4808 16.3989 14.4864 16.3989 14.4976 16.3989C14.5258 16.3989 14.554 16.3989 14.5878 16.3989C14.7004 16.3989 14.8074 16.3933 14.9201 16.382C15.0665 16.3708 15.2129 16.3426 15.3594 16.3088C15.3819 16.3032 15.4101 16.2975 15.4326 16.2919C15.6917 16.2243 15.9395 16.1342 16.1704 15.9934L16.5703 15.7512C16.8406 15.5879 17.156 15.509 17.4714 15.5034C17.7868 15.509 18.0966 15.5879 18.3726 15.7512L18.7725 15.9934C19.1104 16.1962 19.4877 16.3257 19.8764 16.3764C20.0172 16.3989 20.1636 16.4102 20.3044 16.4102C20.8169 16.4102 21.3238 16.275 21.7688 16.0159L22.8727 15.5259C22.8952 15.5147 22.9121 15.4921 22.9346 15.4809L23.0191 15.4414L22.0616 28.8967Z" fill="black"/>
<path d="M3.38538 24.2164H7.32789C7.63766 24.2164 7.89111 23.9629 7.89111 23.6531C7.89111 23.3434 7.63766 23.0899 7.32789 23.0899H3.38538C3.07561 23.0899 2.82216 23.3434 2.82216 23.6531C2.82216 23.9629 3.07561 24.2164 3.38538 24.2164Z" fill="black"/>
<path d="M3.38538 26.4692H8.45432C8.76409 26.4692 9.01754 26.2158 9.01754 25.906C9.01754 25.5962 8.76409 25.3428 8.45432 25.3428H3.38538C3.07561 25.3428 2.82216 25.5962 2.82216 25.906C2.82216 26.2158 3.07561 26.4692 3.38538 26.4692Z" fill="black"/>
<path d="M9.58076 27.5957H3.38538C3.07561 27.5957 2.82216 27.8491 2.82216 28.1589C2.82216 28.4686 3.07561 28.7221 3.38538 28.7221H9.58076C9.89052 28.7221 10.144 28.4686 10.144 28.1589C10.144 27.8491 9.89052 27.5957 9.58076 27.5957Z" fill="black"/>
<path d="M12.9601 27.5957H11.8336C11.5239 27.5957 11.2704 27.8491 11.2704 28.1589C11.2704 28.4686 11.5239 28.7221 11.8336 28.7221H12.9601C13.2698 28.7221 13.5233 28.4686 13.5233 28.1589C13.5233 27.8491 13.2698 27.5957 12.9601 27.5957Z" fill="black"/>
</svg>
