<svg width="28" height="23" viewBox="0 0 28 23" fill="none" xmlns="http://www.w3.org/2000/svg">
<path fill-rule="evenodd" clip-rule="evenodd" d="M27.8769 11.5348L26.8015 12.8089C26.7153 12.9113 26.574 12.9796 26.4361 12.9967H26.3844C26.2465 12.9967 26.1224 12.9626 26.019 12.8772L13.9995 2.94775L1.98351 12.8772C1.86286 12.9626 1.72154 13.0138 1.56643 12.9967C1.42855 12.9796 1.28722 12.9113 1.20105 12.8054L0.125604 11.5348C-0.0674246 11.3094 -0.0329552 10.9473 0.194543 10.7594L12.6794 0.450872C13.4101 -0.150291 14.5924 -0.150291 15.3197 0.450872L19.5595 3.96221V0.604578C19.5595 0.297166 19.8008 0.0546512 20.1144 0.0546512H23.4476C23.7613 0.0546512 24.0026 0.297166 24.0026 0.604578V7.62725L27.808 10.7594C28.0321 10.9473 28.0665 11.3094 27.8769 11.5348Z" fill="black"/>
<path fill-rule="evenodd" clip-rule="evenodd" d="M24 13.9696V21.9359C24 22.519 23.4969 23 22.887 23H16.2226V16.625H11.7774V23H5.10958C4.5031 23 4 22.519 4 21.9359V13.9696C4 13.9366 4.01723 13.9004 4.01723 13.8674L14 6L23.9828 13.8674C24 13.9004 24 13.9366 24 13.9696Z" fill="black"/>
</svg>
