<svg width="19" height="25" viewBox="0 0 19 25" fill="none" xmlns="http://www.w3.org/2000/svg">
<path d="M18.5 0H2.5C1.83696 0 1.20107 0.263392 0.732233 0.732233C0.263392 1.20107 0 1.83696 0 2.5V24.5C0 24.6326 0.052678 24.7598 0.146446 24.8536C0.240214 24.9473 0.367392 25 0.5 25H18.5C18.6326 25 18.7598 24.9473 18.8536 24.8536C18.9473 24.7598 19 24.6326 19 24.5V0.5C19 0.367392 18.9473 0.240215 18.8536 0.146447C18.7598 0.0526785 18.6326 0 18.5 0ZM2.5 1H18V4H2.5C2.10218 4 1.72064 3.84196 1.43934 3.56066C1.15804 3.27936 1 2.89782 1 2.5C1 2.10218 1.15804 1.72064 1.43934 1.43934C1.72064 1.15804 2.10218 1 2.5 1ZM1 24V4.487C1.43027 4.81777 1.95729 4.99801 2.5 5H10H10.813H12H13C13 5 13.9063 5.01074 14 5C14.0937 4.98926 14.5 5 14.5 5H15H15.5C15.5 5 15.623 4.98939 15.7165 5C15.81 5.01061 15.7835 5.05 16 5C15.9498 5.0796 16.0848 4.95927 16 5C15.9999 5.09408 16.0502 4.9204 16 5H18V24H1Z" fill="black"/>
<path fill-rule="evenodd" clip-rule="evenodd" d="M6.84444 7.03545C6.84444 7.03545 7.87131 11.7847 6.82304 12.5121C6.67329 12.5976 6.58772 12.5976 6.54493 12.7046C6.30961 13.218 6.67329 18.1598 6.75887 18.9728C6.84444 19.8071 7.37927 22.2887 6.60911 22.8235C6.24543 23.0588 6.05289 23.0588 5.7106 22.8235C4.94045 22.2887 5.49667 19.8713 5.56085 18.9728C5.62503 18.1598 5.96732 13.1111 5.77478 12.7046C5.56085 12.2553 4.94045 12.619 5.00463 11.0146C5.00463 10.6081 5.30414 7.09962 5.47528 7.03545C5.49667 7.01405 5.53946 7.03545 5.58225 7.05684C5.68921 7.20659 5.38971 11.0146 5.56085 11.0359C5.60364 11.0573 5.64642 11.0573 5.68921 11.0359C5.83896 10.9718 5.732 7.12102 5.88175 7.01405C5.92453 6.99266 5.96732 6.99266 5.98871 7.03545C6.13847 7.22798 5.92453 11.0359 6.09568 11.0359H6.20265C6.39518 11.0359 6.18125 7.22798 6.30961 7.03545C6.3524 6.99266 6.39518 6.99266 6.41658 7.01405C6.56633 7.12102 6.48076 10.9718 6.63051 11.0359C6.67329 11.0573 6.71608 11.0359 6.75887 11.0359C6.93001 10.9932 6.63051 7.20659 6.73747 7.05684C6.75887 7.01405 6.80165 7.01405 6.84444 7.03545Z" fill="#333333"/>
<path fill-rule="evenodd" clip-rule="evenodd" d="M11.963 7.23926C13.0404 7.23926 13.9146 8.46762 13.9146 9.99377C13.9146 11.371 13.2031 12.5249 12.2679 12.7297L12.4712 22.6869C12.4712 22.7985 11.4751 22.7985 11.4751 22.6869L11.6784 12.7297C10.7433 12.5249 10.0317 11.371 10.0317 9.99377C10.0317 8.46762 10.9059 7.23926 11.963 7.23926Z" fill="#333333"/>
</svg>
