<svg width="22" height="22" viewBox="0 0 22 22" fill="none" xmlns="http://www.w3.org/2000/svg">
<circle cx="11" cy="11" r="11" fill="white"/>
<path d="M9.02638 8C8.50671 8 7.98953 8.23246 7.59359 8.69688C6.80171 9.62569 6.80256 11.1191 7.59359 12.0487L10.9187 15.9611C10.9289 15.9733 10.9411 15.9831 10.9548 15.9898C10.9685 15.9965 10.9832 16 10.9982 16C11.0131 16 11.0278 15.9965 11.0415 15.9898C11.0552 15.9831 11.0674 15.9733 11.0776 15.9611C12.1879 14.6587 13.2957 13.3549 14.4061 12.0525C15.198 11.1237 15.198 9.62949 14.4061 8.70066C13.6142 7.77184 12.329 7.77182 11.5371 8.70066L10.9998 9.32558L10.4626 8.69688C10.0666 8.23246 9.54604 8 9.02638 8ZM9.02638 8.2386C9.48789 8.2386 9.95121 8.44609 10.3071 8.86352L10.9221 9.5907C10.9322 9.60297 10.9445 9.61277 10.9582 9.61946C10.9719 9.62616 10.9866 9.62962 11.0015 9.62962C11.0164 9.62962 11.0312 9.62616 11.0449 9.61946C11.0585 9.61277 11.0708 9.60297 11.0809 9.5907L11.6926 8.8711C12.4044 8.03621 13.5389 8.03623 14.2506 8.8711C14.9624 9.70597 14.9624 11.051 14.2506 11.8858C13.1673 13.1566 12.0832 14.429 10.9998 15.6997L7.74904 11.8821C7.03785 11.0463 7.03726 9.69837 7.74904 8.86352C8.10492 8.44609 8.56487 8.2386 9.02638 8.2386Z" fill="black"/>
</svg>
