<svg width="22" height="20" viewBox="0 0 22 20" fill="none" xmlns="http://www.w3.org/2000/svg">
<path d="M21.2161 16.3416H17.9527C17.6273 15.0799 16.4851 14.1465 15.1217 14.1465C13.7583 14.1465 12.6161 15.0799 12.2907 16.3416H0.731707C0.327561 16.3416 0 16.6692 0 17.0733C0 17.4775 0.327561 17.805 0.731707 17.805H12.291C12.6163 19.0667 13.7585 20.0001 15.122 20.0001C16.4854 20.0001 17.6276 19.0667 17.9529 17.805H21.2163C21.6205 17.805 21.948 17.4775 21.948 17.0733C21.948 16.6692 21.6202 16.3416 21.2161 16.3416ZM15.122 18.5367C14.3151 18.5367 13.6585 17.8801 13.6585 17.0733C13.6585 16.2665 14.3151 15.6099 15.122 15.6099C15.9288 15.6099 16.5854 16.2665 16.5854 17.0733C16.5854 17.8801 15.9288 18.5367 15.122 18.5367Z" fill="#1F2022"/>
<path d="M21.2195 9.26836H10.148C9.82268 8.00666 8.68049 7.07324 7.31707 7.07324C5.95366 7.07324 4.81146 8.00666 4.4861 9.26836H0.731707C0.327561 9.26836 0 9.59593 0 10.0001C0 10.4042 0.327561 10.7318 0.731707 10.7318H4.4861C4.81146 11.9935 5.95366 12.9269 7.31707 12.9269C8.68049 12.9269 9.82268 11.9935 10.148 10.7318H21.2195C21.6237 10.7318 21.9512 10.4042 21.9512 10.0001C21.9512 9.59593 21.6237 9.26836 21.2195 9.26836ZM7.31707 11.4635C6.51024 11.4635 5.85366 10.8069 5.85366 10.0001C5.85366 9.19324 6.51024 8.53666 7.31707 8.53666C8.1239 8.53666 8.78049 9.19324 8.78049 10.0001C8.78049 10.8069 8.1239 11.4635 7.31707 11.4635Z" fill="#1F2022"/>
<path d="M0.731707 3.65854H12.291C12.6163 4.92024 13.7585 5.85366 15.122 5.85366C16.4854 5.85366 17.6276 4.92024 17.9529 3.65854H21.2195C21.6237 3.65854 21.9512 3.33098 21.9512 2.92683C21.9512 2.52268 21.6237 2.19512 21.2195 2.19512H17.9529C17.6276 0.933415 16.4851 0 15.122 0C13.7588 0 12.6163 0.933415 12.291 2.19512H0.731707C0.327561 2.19512 0 2.52268 0 2.92683C0 3.33098 0.327561 3.65854 0.731707 3.65854ZM15.122 1.46341C15.9288 1.46341 16.5854 2.12 16.5854 2.92683C16.5854 3.73366 15.9288 4.39024 15.122 4.39024C14.3151 4.39024 13.6585 3.73366 13.6585 2.92683C13.6585 2.12 14.3151 1.46341 15.122 1.46341Z" fill="#1F2022"/>
</svg>
